<svg width="149" height="21" viewBox="0 0 149 21" fill="none" xmlns="http://www.w3.org/2000/svg">
<path d="M0 21V0H18V3H21V12H18V15H6V21H0ZM6 12H15V3H6V12ZM28.5 21V18H25.5V3H28.5V0H43.5V3H46.5V18H43.5V21H28.5ZM31.5 18H40.5V3H31.5V18ZM60 21V3H54V0H72V3H66V21H60ZM76.5 21V6H79.5V3H82.5V0H91.5V3H94.5V6H97.5V21H91.5V15H82.5V21H76.5ZM82.5 12H91.5V6H88.5V3H85.5V6H82.5V12ZM111 21V3H105V0H123V3H117V21H111ZM130.5 21V18H127.5V3H130.5V0H145.5V3H148.5V18H145.5V21H130.5ZM133.5 18H142.5V3H133.5V18Z" fill="#FF8C00"/>
</svg>
