<svg width="16" height="16" viewBox="0 0 16 16" fill="none" xmlns="http://www.w3.org/2000/svg">
<path d="M9.69119 13.9494C9.71652 14.0085 9.76055 14.059 9.81737 14.0941C9.87419 14.1291 9.94109 14.147 10.0091 14.1454C10.0771 14.1437 10.1429 14.1227 10.1977 14.0849C10.2526 14.0472 10.2938 13.9947 10.3159 13.9344L14.6492 2.05935C14.6705 2.00397 14.6746 1.94404 14.6609 1.88658C14.6473 1.82911 14.6164 1.77647 14.572 1.73484C14.5276 1.6932 14.4715 1.66429 14.4102 1.65147C14.3489 1.63866 14.2849 1.64248 14.2259 1.66248L1.55919 5.72498C1.49485 5.74566 1.4388 5.7843 1.39857 5.83571C1.35833 5.88712 1.33584 5.94884 1.33409 6.01258C1.33235 6.07632 1.35145 6.13904 1.38883 6.19231C1.4262 6.24558 1.48007 6.28686 1.54319 6.3106L6.82986 8.2981C6.99698 8.36083 7.14882 8.45464 7.27623 8.57387C7.40364 8.6931 7.50398 8.83529 7.57119 8.99185L9.69119 13.9494Z" stroke="black" stroke-width="1.33333" stroke-linecap="round" stroke-linejoin="round"/>
<path d="M14.5687 1.7373L7.27539 8.57418" stroke="black" stroke-width="1.33333" stroke-linecap="round" stroke-linejoin="round"/>
</svg>
